<?xml version="1.0" encoding="utf-8"?>
<!-- Generator: Adobe Illustrator 28.2.0, SVG Export Plug-In . SVG Version: 6.00 Build 0)  -->
<svg version="1.1" id="Layer_1" xmlns="http://www.w3.org/2000/svg" xmlns:xlink="http://www.w3.org/1999/xlink" x="0px" y="0px"
	 viewBox="0 0 509 510" style="enable-background:new 0 0 509 510;" xml:space="preserve">
<style type="text/css">
	.st0{fill:#D6EFF6;stroke:#FFFFFF;stroke-miterlimit:10;}
	.st1{fill:#FFFFFF;}
	.st2{fill:#0B4A7D;}
</style>
<rect y="1" class="st0" width="509" height="509"/>
<path class="st1" d="M170.25,416.1c2.08-12.06,4.57-20.89,4.57-20.89l-54.52-93.7c0,0-5.88-56.81,3.92-65.62s33.63-19.59,37.54-17.3
	c3.92,2.29,4.9-4.24,4.9-4.24s-4.24-138.1,4.24-147.57s16.65-16.65,27.42-15.67c10.77,0.98,30.64,3.59,31.81,25.79
	c1.17,22.2,0,70.19,0,70.19s20.75-12.41,31.85-9.47c11.1,2.94,26.77,11.1,29.06,16.65c2.29,5.55,15.67-10.12,31.67-0.65
	s15.34,16.32,18.28,26.77c2.94,10.45,29.71-8.16,33.95,1.31c4.24,9.47,14.36,4.9,16.65,34.61c2.29,29.71-7.51,119.49-11.1,127
	c-3.59,7.51-19.26,51.58-28.4,51.58s17.63,3.59,17.63,12.73s-1.31,21.87-13.39,25.79c-12.08,3.92-166.83,7.51-176.95-2.29
	C169.27,421.32,169.58,419.95,170.25,416.1z"/>
<g>
	<path class="st2" d="M238.3,81.98c0.18,2.43,0.23,4.83,0.22,7.14c-0.11,14.36,0.5,28.8,0.03,43.15c-0.18,5.52,7.23,1.1,11.84-0.83
		c4.6-1.62,20.86-2.71,33.11,6.13c1.84,1.33,3.56,2.82,5.16,4.43c1.32,1.32,2.8,3.57,4.78,3.88c1.09,0.17,2.08-0.53,3.04-0.92
		c6.3-2.5,13.38-3.19,20.06-2.01c5.07,0.9,9.94,2.87,14.29,5.62c4.05,2.56,7.72,5.78,10.74,9.51c2.86,3.54,5.62,7.94,6.47,12.47
		c0.32,1.71,0.43,3.82,1.96,4.95c2.17,1.6,4.92,0.45,7.12-0.36c3.71-1.37,7.85-1.17,11.7-0.64c7.54,1.05,14.59,4.74,19.73,10.35
		c5.12,5.58,8.3,12.92,9.35,20.38c1.24,8.82,1.6,17.72,1.93,26.61c0.33,8.79,0.45,17.69,0.3,26.51c-0.15,8.87-0.43,17.82-1.32,26.65
		c-0.37,3.7-0.71,7.4-1.15,11.09c-0.35,2.95-0.74,5.9-1.17,8.84c-0.42,2.92-0.91,5.82-1.41,8.73c0,0.01-0.01,0.03-0.01,0.04
		c-0.01,0.04-0.02,0.09-0.02,0.13c-0.46,2.65-0.96,5.29-1.49,7.92c-0.57,2.81-1.17,5.62-1.82,8.41c-0.65,2.8-1.33,5.58-2.06,8.36
		c-0.73,2.77-1.5,5.54-2.31,8.29c-0.81,2.75-1.67,5.48-2.57,8.2c-0.9,2.71-1.85,5.41-2.84,8.09c-0.92,2.48-1.87,4.94-2.87,7.38
		c-1.62,3.95-3.35,7.87-5.28,11.67c-1.66,3.26-3.76,6.45-4.13,10.18c-0.11,1.15,0.48,2.14,1.21,2.98c0.8,0.91,1.57,1.76,2.27,2.77
		c1.6,2.27,3.08,4.67,4.35,7.14c1.22,2.4,1.75,5.37,1.93,8.03c0.27,4.23-0.32,8.6-1.86,12.55c-1.43,3.67-3.61,7.03-6.32,9.89
		c-2.76,2.92-6.07,5.32-9.69,7.07c-3.76,1.81-7.84,2.91-12,3.23c-0.82,0.06-1.64,0.1-2.46,0.1c-36.03,0.12-72.06,0.26-108.09,0.19
		c-11.34-0.02-22.69-0.06-34.03-0.13c-6.5-0.04-13.05,0.37-19.5-0.59c-10.09-1.5-19.69-7.24-24.71-16.28
		c-3.49-6.28-4.96-14.3-2.97-21.29c0.45-1.59,0.96-3.11,1.89-4.49c1.42-2.12,3.06-4.09,4.68-6.06c0.64-0.78,1.5-1.57,1.75-2.59
		c0.23-0.94,0.02-1.97-0.28-2.87c-1.29-3.81-4.1-7.03-6.39-10.27c-2.57-3.64-5.19-7.24-7.83-10.83c-1.69-2.3-3.39-4.59-5.08-6.88
		c-0.35-0.47-0.69-0.94-1.04-1.41c-0.54-0.73-1.07-1.45-1.61-2.18c-2.75-3.73-5.55-7.43-8.31-11.13c-1.27-1.71-2.55-3.42-3.8-5.14
		c-3.15-4.33-6.32-8.65-9.34-13.07c-0.5-0.74-1-1.48-1.48-2.24c-0.3-0.48-1.31-1.62-1.31-2.18c-1.41-2.14-2.38-4.55-3.47-6.91
		c-4.24-8.28-5.86-17.79-5.63-27.06c0.22-8.99-0.04-18.01-0.04-27c0-7.95-0.57-16.15,1.48-23.91c1.84-6.96,5.52-13.45,10.62-18.54
		c1.05-1.05,2.16-1.99,3.33-2.9c5.41-4.19,11.71-7.23,18.5-8.28c1.4-0.22,2.79-0.4,4.18-0.64c1.39-0.24,2.82-0.09,4.25,0.2
		c1.78,0.35,4.99,0.41,5.01-2.13c-0.24-27.81-0.04-55.63-0.1-83.45c0.6-17.18-1.4-34.73,1.16-51.69c1.09-4.46,3.44-8.84,5.9-12.69
		c5.36-8.39,15.84-14.82,25.55-16.75c7.42-1.48,15.16-0.9,22.24,1.78C227.79,52.42,237.13,66.15,238.3,81.98z M174.1,172.87
		c-0.63,31.11,1.22,62.92-0.65,93.7c-0.87,6.24-14.62,6.88-16.47-1.28c-1.23-11.75-0.04-23.78-0.39-35.63c0-0.83-0.32-1.26-1.11-1.5
		c-6.4-1.56-13.79,0.18-18.94,4.17c-6.21,4.51-10,11.95-9.69,19.67c0,15.44-0.04,30.89,0,46.33c0.02,10.3,5.64,19.39,11.43,27.5
		c6.89,9.64,13.89,19.2,21,28.68c2.48,3.31,4.97,6.61,7.38,9.97c1.29,1.79,2.57,3.59,3.84,5.4c1.13,1.62,2.17,3.78,3.56,5.18
		c0.97,1.5,1.94,3,2.87,4.52c1.75,2.85,2.93,6.37,6.95,5.38c2.96-0.72,6.02-0.39,9.02-0.17c3.35,0.24,6.7,0.51,10.04,0.89
		c8.2,0.92,16.29,2.43,24.36,4.11c5.6,1.19,11.14,2.9,16.79,3.78c0.44,0.07,2.15,0.15,1.99,0.84c-0.13,0.59-2.52,0.89-2.95,0.98
		c-3.77,0.8-7.59,1.08-11.38,1.66c-12.72,1.97-25.54,3.59-38.39,4.43c-4.82,0.32-10.13,0.54-14.08,3.66
		c-3.7,2.92-5.91,7.62-5.58,12.35c0.5,7.21,7.42,11.34,13.97,12.18c51.98,0.16,103.97,0.01,155.95,0.07
		c6.76,0.01,13.38-0.78,17.72-6.76c3.98-5.48,2.79-14.29-3.11-18.01c-3.23-2.03-7.3-2.56-11-3.19c-5.83-0.99-11.77-1.32-17.67-1.69
		c-4.19-0.26-10.23-0.07-13.79-2.72c-1.77-1.32-7.63-3.05-2.84-4.77c9.86-4.38,20.43-6.83,31.12-8.09
		c10.44-1.23,9.33,4.68,14.23-6.61c5.6-12.36,10.49-25.07,14.13-38.14c9.35-33.57,12.55-68.52,11.51-103.29
		c-0.21-7.01-0.27-14.2-1.2-21.16c-0.81-9.45-2.97-21.69-13.84-24.06c-4.37-0.96-17.43-2.27-17.72,4.59
		c-0.32,7.53,0.27,15.06-0.21,22.59c-0.09,1.38-0.21,2.8-0.76,4.07c-1.93,4.45-8.71,4.49-12.2,2.1c-2.8-1.65-3.92-5.14-3.8-8.29
		c0.03-11.28,0.01-22.57,0-33.85c-0.52-6.24-2.41-12.31-6.94-16.84c-6.91-6.68-17.54-8.78-26.62-5.87
		c-2.04,0.51-2.62,2.32-2.67,4.22c-0.16,5.98-0.12,11.96,0.02,17.94c0.14,5.89,0.12,11.89,0.68,17.75c0.35,3.64-0.1,7.3-3.23,9.65
		c-1.71,1.29-4,1.83-6.12,1.76c-4.49-0.17-7.8-4.01-7.87-8.36c-0.2-12.89,1.07-25.69,0.72-38.59c-0.52-3.24-0.13-6.9-2.27-9.57
		c-6.24-8.21-18.74-10.05-28.09-6.73c-5.62,2.38-12.11,6.13-12.91,12.76c0.07,5.89-0.11,11.8,0.13,17.69
		c-0.09,5.45,2.22,12.63-2.72,16.57c-4.11,3.29-11.14,1.78-13.22-3.13c-1.45-3.96-0.52-8.4-0.84-12.55
		c0.21-23.89-0.37-47.8,0.02-71.68c-0.02-6.95,0.04-13.91-0.08-20.86c0.02-5.26-0.25-9.86-2.68-14.14
		c-5.17-9.99-17.74-14.73-28.4-11.61c-7.56,2.6-14.48,8.38-16.14,16.5C172.5,108.91,174.89,141.12,174.1,172.87z"/>
	<path class="st2" d="M253.82,272.33c-0.52,9.54,3.26,24.23-9.28,27.12c-7.25,1.74-14.55-4.19-14.39-11.63
		c-0.01-10.36-0.02-20.72,0-31.08c0.01-5.69,3.79-10.38,9.33-11.64C256.94,243.21,253.63,260.77,253.82,272.33z"/>
	<path class="st2" d="M311.7,272.28c-0.54,9.53,3.29,24.22-9.23,27.16c-7.28,1.79-14.65-4.18-14.44-11.67
		c-0.01-10.33-0.02-20.65,0-30.98c0.01-5.72,3.73-10.38,9.28-11.68C314.83,243.19,311.5,260.68,311.7,272.28z"/>
</g>
</svg>
